<svg xmlns="http://www.w3.org/2000/svg" viewBox="0 0 16.78 15"><defs><style>.cls-1{fill:#a0a0a4;}</style></defs><title>cart</title><g id="Layer_2" data-name="Layer 2"><g id="body"><path class="cls-1" d="M16,9.88H4.23V9.3L15,7.88a1.15,1.15,0,0,0,1-1.13V3.19a1.07,1.07,0,0,0-1.07-1.07H4.23V1.31A1.31,1.31,0,0,0,2.92,0H.83A.83.83,0,0,0,0,.83a.84.84,0,0,0,.83.84H2.56v8.57a1.31,1.31,0,0,0,1.31,1.31H16a.84.84,0,0,0,.83-.84A.83.83,0,0,0,16,9.88Zm-7-2.4-2,.27V3.31h2Zm1-4.17h2V7.08l-2,.27ZM14.79,6.7,12.87,7V3.31h1.92ZM5.92,3.31V7.88L4.23,8.1V3.31Z"/><path class="cls-1" d="M6.35,11.71A1.65,1.65,0,1,0,8,13.35,1.64,1.64,0,0,0,6.35,11.71Z"/><path class="cls-1" d="M14.29,11.71a1.65,1.65,0,1,0,1.64,1.64A1.64,1.64,0,0,0,14.29,11.71Z"/></g></g></svg>