<svg xmlns="http://www.w3.org/2000/svg" viewBox="0 0 18.52 15"><defs><style>.cls-1{fill:#a0a0a4;}</style></defs><title>home</title><g id="Layer_2" data-name="Layer 2"><g id="body"><path class="cls-1" d="M15.81,12.2A2.76,2.76,0,0,1,13,15H11.13V10.79a1.86,1.86,0,1,0-3.71,0V15H5.53a2.74,2.74,0,0,1-2.8-2.8V8.62L4,7.67,9.26,3.61l5.3,4.06,1.25.95Zm1.31-4L9.26,2,1.4,8.2A.87.87,0,0,1,.33,6.84L8.73.19A.86.86,0,0,1,9.8.19l1.51,1.18A.72.72,0,0,1,12,.68h1.85a.73.73,0,0,1,.71.75V4l3.61,2.86a.87.87,0,0,1,.15,1.22A.86.86,0,0,1,17.12,8.2Z"/></g></g></svg>