<svg xmlns="http://www.w3.org/2000/svg" viewBox="0 0 12.42 15"><defs><style>.cls-1{fill:#a0a0a4;}</style></defs><title>level</title><g id="Layer_2" data-name="Layer 2"><g id="body"><path class="cls-1" d="M6.27,2.83a3.44,3.44,0,1,0,3.38,3.5A3.44,3.44,0,0,0,6.27,2.83ZM7.48,8,6.29,7.12,5.11,8l.45-1.39L4.37,5.73H5.84l.45-1.39.45,1.39H8.21L7,6.59Z"/><path class="cls-1" d="M12.38,6.54a.54.54,0,0,0,0-.22c0-.53-.63-1-.75-1.47a.43.43,0,0,1,0,0,3.24,3.24,0,0,1,.06-.92,1.17,1.17,0,0,0-.07-.68c-.25-.45-1-.52-1.39-.89S9.86,1.15,9.42.89,8.27,1,7.77.81,6.85,0,6.32,0s-1,.63-1.47.76S3.65.53,3.2.78s-.52,1-.89,1.39S1.15,2.57.89,3a1.17,1.17,0,0,0-.09.73,3.73,3.73,0,0,1,0,.81.36.36,0,0,1,0,.11C.67,5.15,0,5.57,0,6.1a.69.69,0,0,0,0,.25c.14.43.61.81.72,1.22a1.5,1.5,0,0,1,0,.52A3.35,3.35,0,0,0,.7,9a.7.7,0,0,0,.08.2c.25.46,1,.53,1.39.9l.09.12-.07.11h0l-.11.18L.48,13.15c-.08.14,0,.26.15.27l1.38,0a.54.54,0,0,1,.44.28L3,14.86c.08.15.21.15.29,0L4.87,12l.11-.2c.13.09.26.2.4.31a1.23,1.23,0,0,0,.72.34,1.28,1.28,0,0,0,.75-.32,3.09,3.09,0,0,1,.62-.4l.12.24L9,14.88c.07.16.2.16.28,0l.63-1.12a.58.58,0,0,1,.46-.26l1.38,0a.16.16,0,0,0,.15-.26l-1.5-2.67h0l-.12-.21-.12-.21c.4-.3,1.1-.36,1.35-.78a.73.73,0,0,0,.09-.26,3.23,3.23,0,0,0,0-.81,1.86,1.86,0,0,1,0-.58C11.74,7.35,12.24,7,12.38,6.54Zm-1.86,0,0,.06a.93.93,0,0,1-.05.1l-.11.15-.05.06L10.21,7l0,0,0,.06a1.1,1.1,0,0,0-.15.28v.08h0v0s0,0,0,.06v.11s0,.1,0,.16h0V8h0v.14a.88.88,0,0,1,0,.29s0,0,0,0l0,0a.39.39,0,0,1-.08.1.57.57,0,0,1-.18.12l0,0a2.42,2.42,0,0,0-.7.35c-.23.22-.3.69-.54.91l-.06,0,0,0-.07,0a1.1,1.1,0,0,1-.51,0H7.6a1.3,1.3,0,0,0-.44,0c-.34.09-.65.54-1,.53a.58.58,0,0,1-.33-.12.91.91,0,0,1-.16-.11l-.06,0-.09-.08,0,0,0,0a.73.73,0,0,0-.29-.15c-.35-.11-.85.12-1.15-.06s-.34-.73-.59-1a1,1,0,0,0-.2-.15l-.1,0L3,8.75l-.14-.06-.07,0-.08,0,0,0a.58.58,0,0,1-.17-.14.22.22,0,0,1-.05-.08.37.37,0,0,1-.06-.21h0a.43.43,0,0,1,0-.16V7.87l0-.21h0V7.52h0a.13.13,0,0,0,0-.06h0V7.33a.06.06,0,0,0,0,0v0h0s0,0,0,0c-.08-.34-.53-.66-.53-1a.08.08,0,0,1,0,0V6.1h0v0h0V6L2,5.8l0,0c.1-.14.22-.27.3-.4l0,0v0l0,0V5.18a.67.67,0,0,0,0-.25v0a.34.34,0,0,0,0-.1h0c0-.06,0-.11,0-.17v0h0c0-.05,0-.11,0-.16V4.27h0v0h0A.6.6,0,0,1,2.49,4c.19-.31.74-.34,1-.59s.3-.79.62-1,.8.08,1.15,0,.66-.54,1-.53.67.47,1,.56.84-.13,1.15.06.34.73.59,1,.79.31,1,.63-.07.8,0,1.15.41.56.51.86v.07h0v.09A.55.55,0,0,1,10.52,6.52Z"/></g></g></svg>