<svg xmlns="http://www.w3.org/2000/svg" viewBox="0 0 13.97 15"><defs><style>.cls-1{fill:#a0a0a4;}</style></defs><title>web</title><g id="Layer_2" data-name="Layer 2"><g id="body"><polygon class="cls-1" points="6.73 4.76 6.73 14.04 9.12 11.66 10.86 15 12.12 14.35 10.45 11.13 13.67 11.13 6.73 4.76"/><path class="cls-1" d="M13.86,8.18l0-.21a.52.52,0,0,0,0-.11,1.49,1.49,0,0,0,0-.21c0-.05,0-.11,0-.16a1,1,0,0,1,0-.17c0-.11,0-.22,0-.33s0-.23,0-.34,0-.13,0-.2V6.34l0-.26V6c0-.1,0-.19,0-.28v0h0A7,7,0,0,0,7.61,0h0L7.31,0H6.66L6.37,0h0A7,7,0,0,0,.11,5.74h0v0A2.36,2.36,0,0,0,.07,6v0l0,.26a.41.41,0,0,1,0,.11c0,.07,0,.14,0,.2S0,6.87,0,7s0,.22,0,.32,0,.15,0,.22a.34.34,0,0,1,0,.1l0,.27v0a2.54,2.54,0,0,0,0,.29h0a7,7,0,0,0,5.63,5.62h.07l.19,0h.14l.18,0,.18,0H7V12.34H7a5.5,5.5,0,0,1-.91-.08A14.15,14.15,0,0,1,5.5,9.49c.48,0,1,0,1.48,0H7V8.61H7c-.55,0-1.08,0-1.57,0,0-.49,0-1,0-1.57s0-1.09,0-1.58c.49,0,1,0,1.57,0s1.08,0,1.57,0c0,0,0,.06,0,.09A1.18,1.18,0,0,1,9,5.73l.57.53c0-.26,0-.51,0-.76a14.15,14.15,0,0,1,2.77.57,5.27,5.27,0,0,1,0,1.83l-.72.21.55.5h0l1.29,1.18a7.41,7.41,0,0,0,.47-1.56h0ZM5,2a15.61,15.61,0,0,0-.45,2.55A16.75,16.75,0,0,0,2,5,5.33,5.33,0,0,1,5,2ZM5,12A5.33,5.33,0,0,1,2,9a16.75,16.75,0,0,0,2.55.45A15.8,15.8,0,0,0,5,12ZM4.48,8.47A14,14,0,0,1,1.71,7.9,4.6,4.6,0,0,1,1.63,7a5.52,5.52,0,0,1,.08-.92A14,14,0,0,1,4.48,5.5c0,.48-.05,1-.05,1.49S4.45,8,4.48,8.47Zm2.5-4c-.51,0-1,0-1.48.05a14,14,0,0,1,.57-2.77A5.5,5.5,0,0,1,7,1.63a5.62,5.62,0,0,1,.92.08,14,14,0,0,1,.57,2.77C8,4.45,7.49,4.43,7,4.43Zm2.43.13A16.75,16.75,0,0,0,9,2a5.36,5.36,0,0,1,3,3A17,17,0,0,0,9.41,4.56Z"/></g></g></svg>